<svg xmlns="http://www.w3.org/2000/svg" viewBox="0 0 140 140" role="img" aria-label="Sidecar">
  <rect width="140" height="140" rx="30" fill="#fbf6f0"/>
  <g transform="translate(0,22)">
    <!-- host chat bubble (coral) -->
    <path d="M 16 6 L 70 6 Q 84 6 84 20 L 84 64 Q 84 78 70 78 L 36 78 L 22 100 L 28 78 L 16 78 Q 2 78 2 64 L 2 20 Q 2 6 16 6 Z" fill="#e2613e"/>
    <!-- buddy chat bubble (dark) with dot eyes -->
    <path d="M 102 30 L 128 30 Q 138 30 138 40 L 138 64 Q 138 74 128 74 L 118 74 L 112 90 L 116 74 L 102 74 Q 92 74 92 64 L 92 40 Q 92 30 102 30 Z" fill="#2b2320"/>
    <circle cx="108" cy="52" r="3.4" fill="#ffffff"/>
    <circle cx="122" cy="52" r="3.4" fill="#ffffff"/>
  </g>
</svg>
